<svg width="199" height="80" viewBox="0 0 199 80" fill="none" xmlns="http://www.w3.org/2000/svg">
<path d="M9.472 53.496C8.14933 53.496 6.89067 53.112 5.696 52.344C4.50133 51.6187 3.60533 50.488 3.008 48.952C2.79467 48.3973 2.64533 47.8 2.56 47.16C2.47467 46.52 2.432 45.9227 2.432 45.368V44.792C2.432 44.4507 2.45333 44.1093 2.496 43.768C2.58133 43.4267 2.77333 43.256 3.072 43.256C3.15733 43.256 3.2 43.2987 3.2 43.384C3.2 43.64 3.17867 43.9173 3.136 44.216C3.136 44.472 3.136 44.728 3.136 44.984C3.136 46.9893 3.62667 48.504 4.608 49.528C5.632 50.552 6.89067 51.064 8.384 51.064C9.87733 51.064 11.328 50.6373 12.736 49.784C14.144 48.9307 15.4453 47.8427 16.64 46.52C17.8347 45.1973 18.9653 43.5547 20.032 41.592C21.0987 39.6293 22.1013 37.56 23.04 35.384C23.9787 33.1653 24.8533 30.9893 25.664 28.856C26.5173 26.7227 27.3067 24.824 28.032 23.16C28.4587 22.1787 29.248 21.3467 30.4 20.664C31.5947 19.9813 32.7253 19.4907 33.792 19.192C33.4933 19.1493 33.1947 19.128 32.896 19.128C32.64 19.0853 32.384 19.0427 32.128 19L23.104 18.104C22.4213 18.0187 21.5253 17.9547 20.416 17.912C19.3067 17.8693 18.1333 17.848 16.896 17.848C15.232 17.848 13.5253 17.9547 11.776 18.168C10.0267 18.3387 8.448 18.6587 7.04 19.128C5.632 19.5973 4.608 20.3013 3.968 21.24C3.62667 21.752 3.456 22.3493 3.456 23.032C3.456 23.7147 3.648 24.3547 4.032 24.952C4.416 25.5493 4.90667 26.0187 5.504 26.36C5.58933 26.4453 5.632 26.5093 5.632 26.552C5.632 26.68 5.52533 26.7867 5.312 26.872C5.14133 26.9573 4.94933 26.9573 4.736 26.872C4.352 26.6587 3.904 26.296 3.392 25.784C2.88 25.272 2.41067 24.7387 1.984 24.184C1.6 23.5867 1.32267 23.096 1.152 22.712C0.896 21.9867 0.768 21.3467 0.768 20.792C0.768 19.768 1.10933 18.936 1.792 18.296C2.51733 17.6133 3.43467 17.1013 4.544 16.76C5.696 16.376 6.912 16.12 8.192 15.992C9.51467 15.8213 10.7733 15.736 11.968 15.736C12.4373 15.736 12.8853 15.736 13.312 15.736C13.7387 15.736 14.144 15.7573 14.528 15.8C15.8933 15.8853 17.3227 15.9707 18.816 16.056C20.3093 16.1413 21.824 16.248 23.36 16.376L33.536 17.208C34.2187 17.2507 35.2427 17.336 36.608 17.464C38.016 17.5493 39.4453 17.592 40.896 17.592C42.4747 17.592 43.9253 17.5067 45.248 17.336C46.5707 17.1227 47.4453 16.76 47.872 16.248C47.9573 16.0773 48.0853 16.0347 48.256 16.12C48.4267 16.2053 48.4693 16.312 48.384 16.44C48.256 16.952 48.0853 17.336 47.872 17.592C47.6587 18.0187 47.36 18.488 46.976 19C46.6347 19.512 46.1013 19.8533 45.376 20.024C45.2053 20.0667 44.9707 20.1093 44.672 20.152C44.3733 20.152 44.0533 20.152 43.712 20.152C42.7307 20.152 41.536 20.088 40.128 19.96C38.7627 19.7893 37.4187 19.6187 36.096 19.448C34.816 19.6613 33.7067 20.2587 32.768 21.24C31.8293 22.2213 31.0187 23.352 30.336 24.632C29.6533 25.8693 29.056 27.0427 28.544 28.152C27.6053 30.072 26.816 31.8427 26.176 33.464C25.5787 35.0427 24.832 36.792 23.936 38.712C23.04 40.6747 22.1013 42.616 21.12 44.536C20.1387 46.4133 18.944 48.12 17.536 49.656C16.4693 50.808 15.232 51.7253 13.824 52.408C12.416 53.1333 10.9653 53.496 9.472 53.496ZM38.505 51.192C38.0783 51.192 37.7157 51.1067 37.417 50.936C37.1183 50.7653 36.969 50.4453 36.969 49.976C36.969 49.3787 37.1183 48.696 37.417 47.928C37.7157 47.16 38.057 46.4133 38.441 45.688C38.825 44.92 39.1663 44.3013 39.465 43.832C37.9717 45.4107 36.4143 46.904 34.793 48.312C33.9823 48.9947 33.0863 49.6347 32.105 50.232C31.1237 50.8293 30.0783 51.128 28.969 51.128C28.5423 51.128 28.2437 51 28.073 50.744C27.9023 50.4453 27.817 50.104 27.817 49.72C27.817 49.5067 27.8383 49.3573 27.881 49.272C28.0943 47.608 28.6277 45.88 29.481 44.088C30.3343 42.296 31.3797 40.6107 32.617 39.032C33.8543 37.4533 35.113 36.1733 36.393 35.192C37.8437 34.0827 39.4437 33.528 41.193 33.528H48.553C48.7663 33.528 48.873 33.6133 48.873 33.784C48.873 34.1253 48.681 34.296 48.297 34.296C47.8703 34.296 47.4437 34.5733 47.017 35.128C46.5903 35.64 46.2703 36.0667 46.057 36.408C45.7583 36.8773 45.289 37.6667 44.649 38.776C44.009 39.8853 43.3477 41.1013 42.665 42.424C42.025 43.704 41.4703 44.8987 41.001 46.008C40.5317 47.1173 40.297 47.928 40.297 48.44C40.297 49.0373 40.5957 49.336 41.193 49.336C41.833 49.336 42.5583 49.0373 43.369 48.44C44.1797 47.8427 44.9903 47.1173 45.801 46.264C46.6543 45.368 47.4223 44.4933 48.105 43.64C48.8303 42.744 49.4063 42.04 49.833 41.528C50.089 41.784 50.0677 42.1467 49.769 42.616C49.513 43.0427 49.2783 43.384 49.065 43.64C48.2117 44.7493 47.2303 45.9013 46.121 47.096C45.0117 48.248 43.7957 49.2293 42.473 50.04C41.193 50.808 39.8703 51.192 38.505 51.192ZM31.593 48.952C32.105 48.952 32.809 48.5893 33.705 47.864C34.6437 47.096 35.6463 46.1573 36.713 45.048C37.7797 43.896 38.7823 42.7013 39.721 41.464C40.6597 40.184 41.4277 39.032 42.025 38.008C42.665 36.9413 42.985 36.1307 42.985 35.576C42.985 35.1067 42.8357 34.7867 42.537 34.616C42.281 34.4453 41.9397 34.36 41.513 34.36C40.8303 34.36 40.0837 34.616 39.273 35.128C38.505 35.5973 37.8863 36.0667 37.417 36.536C36.905 37.0053 36.2863 37.752 35.561 38.776C34.8783 39.7573 34.1957 40.8453 33.513 42.04C32.8303 43.2347 32.2543 44.3867 31.785 45.496C31.3157 46.6053 31.081 47.5013 31.081 48.184C31.081 48.696 31.2517 48.952 31.593 48.952ZM52.4535 52.024C51.6855 52.024 50.8748 51.9173 50.0215 51.704C49.1682 51.4907 48.4002 51.1493 47.7175 50.68C47.0775 50.168 46.6508 49.4853 46.4375 48.632C46.3948 48.504 46.3735 48.312 46.3735 48.056C46.3735 47.4587 46.5015 46.7973 46.7575 46.072C47.0562 45.3467 47.4188 44.8347 47.8455 44.536C48.0162 44.4507 48.1442 44.4507 48.2295 44.536C48.3575 44.6213 48.3788 44.7067 48.2935 44.792C48.2508 44.92 48.1868 45.0907 48.1015 45.304C48.0162 45.4747 47.9522 45.6667 47.9095 45.88C47.7815 46.9893 48.0162 47.9707 48.6135 48.824C48.8695 49.1653 49.1682 49.4853 49.5095 49.784C49.8935 50.0827 50.2562 50.3387 50.5975 50.552C50.8962 50.7227 51.2588 50.8507 51.6855 50.936C52.1122 50.9787 52.5388 51 52.9655 51C53.6482 51 54.3095 50.9147 54.9495 50.744C55.5895 50.5733 56.0588 50.296 56.3575 49.912C56.9122 49.2293 57.1895 48.4613 57.1895 47.608C57.1895 46.968 57.0188 46.2853 56.6775 45.56C56.3362 44.8347 55.8028 44.0667 55.0775 43.256C54.6082 42.744 54.1602 42.1893 53.7335 41.592C53.3068 40.9947 53.0295 40.3547 52.9015 39.672C52.8588 39.544 52.8162 39.416 52.7735 39.288C52.7735 39.16 52.7735 39.032 52.7735 38.904C52.2188 39.7147 51.6428 40.4827 51.0455 41.208C50.4908 41.8907 50.0002 42.488 49.5735 43C49.4028 43.256 49.2535 43.384 49.1255 43.384C49.0402 43.384 48.9975 43.2987 48.9975 43.128C48.9975 42.744 49.1682 42.3387 49.5095 41.912C49.8508 41.528 50.2348 41.0587 50.6615 40.504C51.0882 39.9067 51.4295 39.4373 51.6855 39.096C52.4108 38.0293 52.9442 37.1973 53.2855 36.6C53.6695 35.96 54.0748 35.384 54.5015 34.872C54.9708 34.3173 55.5468 33.8693 56.2295 33.528C56.9548 33.1867 57.7015 33.016 58.4695 33.016C59.3655 33.016 60.1762 33.1653 60.9015 33.464C61.6695 33.72 62.0748 34.4027 62.1175 35.512C62.1175 36.024 62.0108 36.5573 61.7975 37.112C61.6268 37.624 61.4348 38.1147 61.2215 38.584C61.0935 38.84 60.9015 39.032 60.6455 39.16C60.4322 39.2453 60.3255 39.2027 60.3255 39.032C60.3255 38.8613 60.3468 38.6693 60.3895 38.456C60.4322 38.2427 60.4535 38.0507 60.4535 37.88C60.4535 37.1547 60.3255 36.5147 60.0695 35.96C59.8562 35.3627 59.5362 34.936 59.1095 34.68C58.6828 34.3813 58.2348 34.232 57.7655 34.232C57.0828 34.232 56.4215 34.5093 55.7815 35.064C55.1415 35.576 54.8215 36.2587 54.8215 37.112C54.8215 37.1973 54.8215 37.304 54.8215 37.432C54.8215 37.56 54.8428 37.6667 54.8855 37.752C55.0562 38.4347 55.5682 39.2027 56.4215 40.056C57.2748 40.9093 57.9362 41.656 58.4055 42.296C59.2162 43.4053 59.6215 44.536 59.6215 45.688C59.6215 46.84 59.2802 47.9067 58.5975 48.888C57.9575 49.8267 57.0828 50.5733 55.9735 51.128C54.9068 51.7253 53.7335 52.024 52.4535 52.024ZM66.0485 51.192C65.6218 51.192 65.2592 51.1067 64.9605 50.936C64.6618 50.7653 64.5125 50.4453 64.5125 49.976C64.5125 49.3787 64.6618 48.6747 64.9605 47.864C65.3018 47.0533 65.6645 46.2427 66.0485 45.432C66.4325 44.6213 66.7525 43.96 67.0085 43.448C67.2218 43.064 67.4992 42.4667 67.8405 41.656C68.2245 40.8027 68.6085 39.928 68.9925 39.032C69.4192 38.0933 69.7605 37.304 70.0165 36.664C70.3152 36.024 70.4645 35.704 70.4645 35.704C70.0805 36.1307 69.5685 36.728 68.9285 37.496C68.3312 38.264 67.6698 39.0747 66.9445 39.928C66.2618 40.7387 65.6218 41.5067 65.0245 42.232C64.4698 42.9573 64.0645 43.4907 63.8085 43.832C63.6805 44.0027 63.5738 44.088 63.4885 44.088C63.4032 44.088 63.3605 43.9813 63.3605 43.768C63.3605 43.4267 63.4672 43.1067 63.6805 42.808C64.1925 42.168 64.8112 41.4 65.5365 40.504C66.2618 39.5653 66.9872 38.6267 67.7125 37.688C68.4805 36.7493 69.1418 35.9173 69.6965 35.192C69.3552 35.192 68.9072 35.2133 68.3525 35.256C67.8405 35.2987 67.3712 35.3627 66.9445 35.448C66.5178 35.4907 66.2832 35.512 66.2405 35.512C66.0272 35.512 66.0485 35.3413 66.3045 35C66.5605 34.6587 66.9018 34.3173 67.3285 33.976C67.7552 33.6347 68.0752 33.464 68.2885 33.464C68.3312 33.464 68.6725 33.4853 69.3125 33.528C69.9525 33.528 70.4218 33.528 70.7205 33.528C71.5738 32.376 72.4058 31.0533 73.2165 29.56C74.0698 28.0667 74.9018 26.424 75.7125 24.632C76.0538 24.5893 76.6298 24.3547 77.4405 23.928C78.2938 23.4587 78.9552 22.9893 79.4245 22.52C79.6378 22.3067 79.8085 22.2 79.9365 22.2C80.1925 22.2 80.1925 22.3707 79.9365 22.712C79.6378 23.0533 79.1258 23.7787 78.4005 24.888C77.6752 25.9547 76.8645 27.256 75.9685 28.792C75.0725 30.2853 74.2192 31.864 73.4085 33.528H78.5925C79.0618 33.528 79.2965 33.592 79.2965 33.72C79.2965 33.8907 78.9765 34.0613 78.3365 34.232C77.6112 34.4453 76.8432 34.5733 76.0325 34.616C75.2645 34.6587 74.5392 34.744 73.8565 34.872C73.2165 35 72.7472 35.2773 72.4485 35.704C72.1925 36.0027 71.8298 36.6427 71.3605 37.624C70.8912 38.6053 70.3792 39.736 69.8245 41.016C69.3125 42.2533 68.8645 43.512 68.4805 44.792C68.0965 46.0293 67.8618 47.0747 67.7765 47.928V48.184C67.7765 48.5253 67.8832 48.8027 68.0965 49.016C68.3098 49.2293 68.5232 49.336 68.7365 49.336C69.2912 49.336 69.9952 48.9947 70.8485 48.312C71.7445 47.6293 72.6618 46.8187 73.6005 45.88C74.5392 44.8987 75.3498 44.0027 76.0325 43.192C76.3312 42.8507 76.5872 42.5307 76.8005 42.232C77.0565 41.9333 77.2058 41.7413 77.2485 41.656C77.3338 41.8267 77.3765 41.9547 77.3765 42.04C77.3765 42.296 77.2912 42.5733 77.1205 42.872C76.9925 43.1707 76.8432 43.4267 76.6725 43.64C75.8618 44.7067 74.8805 45.8373 73.7285 47.032C72.5765 48.184 71.3392 49.1653 70.0165 49.976C68.7365 50.7867 67.4138 51.192 66.0485 51.192ZM79.824 51.512C78.0747 51.512 76.8587 51.1707 76.176 50.488C75.4933 49.8053 75.152 48.9733 75.152 47.992C75.152 46.7547 75.472 45.432 76.112 44.024C76.7947 42.616 77.4347 41.4213 78.032 40.44C78.7147 39.416 79.632 38.3493 80.784 37.24C81.936 36.1307 83.1947 35.192 84.56 34.424C85.9253 33.656 87.248 33.272 88.528 33.272C89.6373 33.272 90.4053 33.5493 90.832 34.104C91.2587 34.616 91.472 35.2347 91.472 35.96C91.472 37.2827 91.0667 38.3707 90.256 39.224C89.488 40.0773 88.528 40.7813 87.376 41.336C86.224 41.848 85.1147 42.2747 84.048 42.616C83.408 42.7867 82.6613 42.9573 81.808 43.128C80.9547 43.2987 80.144 43.384 79.376 43.384C79.0773 44.152 78.8427 44.8987 78.672 45.624C78.5013 46.3493 78.416 47.0107 78.416 47.608C78.416 48.3333 78.5867 48.9307 78.928 49.4C79.312 49.8693 79.9307 50.104 80.784 50.104C81.1253 50.104 81.5307 50.0613 82 49.976C82.4693 49.8907 82.9813 49.7627 83.536 49.592C84.816 49.1653 86.0747 48.4827 87.312 47.544C88.5493 46.6053 89.68 45.6027 90.704 44.536C91.7707 43.4267 92.5813 42.5093 93.136 41.784C93.264 41.912 93.328 42.0613 93.328 42.232C93.328 42.4453 93.1787 42.7867 92.88 43.256C92.0267 44.4507 90.9173 45.688 89.552 46.968C88.1867 48.248 86.672 49.336 85.008 50.232C83.344 51.0853 81.616 51.512 79.824 51.512ZM79.888 42.104C80.4427 42.1467 81.0613 42.1467 81.744 42.104C82.4693 42.0187 83.1733 41.8693 83.856 41.656C85.6053 41.144 86.864 40.3333 87.632 39.224C88.4427 38.072 88.848 37.048 88.848 36.152C88.848 35.64 88.7413 35.2133 88.528 34.872C88.3147 34.5307 87.9733 34.36 87.504 34.36C86.2667 34.36 85.1573 34.8293 84.176 35.768C83.1947 36.664 82.3413 37.7093 81.616 38.904C80.8907 40.0987 80.3147 41.1653 79.888 42.104ZM112.398 51.384C111.758 51.384 111.182 51.256 110.67 51C110.201 50.744 109.966 50.2747 109.966 49.592C109.966 49.208 110.051 48.7813 110.222 48.312C110.606 47.3307 111.118 46.136 111.758 44.728C112.441 43.32 113.123 41.9547 113.806 40.632C114.489 39.2667 115.022 38.1573 115.406 37.304C115.662 36.792 115.79 36.4293 115.79 36.216C115.79 35.832 115.577 35.7467 115.15 35.96C114.723 36.1733 114.254 36.472 113.742 36.856C113.23 37.24 112.846 37.5387 112.59 37.752C111.481 38.776 110.307 39.992 109.07 41.4C107.875 42.7653 106.766 44.216 105.742 45.752C104.761 47.2453 103.993 48.7387 103.438 50.232C103.395 50.488 103.118 50.7013 102.606 50.872C102.094 51.0427 101.625 51.128 101.198 51.128C100.515 51.128 100.259 50.9147 100.43 50.488C101.411 48.2693 102.414 45.816 103.438 43.128C104.505 40.44 105.699 37.688 107.022 34.872C108.003 32.7387 109.091 30.5413 110.286 28.28C111.523 26.0187 112.889 23.864 114.382 21.816C115.875 19.7253 117.518 17.8907 119.31 16.312C120.889 14.9467 122.617 13.8373 124.494 12.984C126.414 12.088 128.483 11.64 130.702 11.64C131.683 11.64 132.537 11.8533 133.262 12.28C133.987 12.664 134.393 13.368 134.478 14.392V14.968C134.478 15.5653 134.414 16.1627 134.286 16.76C134.243 16.9307 134.073 17.016 133.774 17.016C133.646 17.016 133.603 16.9947 133.646 16.952C133.817 15.8427 133.518 15.0533 132.75 14.584C132.025 14.1147 131.086 13.88 129.934 13.88C127.843 13.88 125.923 14.264 124.174 15.032C122.425 15.8 120.803 16.824 119.31 18.104C117.006 20.1093 115.001 22.6693 113.294 25.784C111.587 28.8987 110.115 32.0773 108.878 35.32C108.281 36.8987 107.683 38.4773 107.086 40.056C106.531 41.6347 105.998 43.1067 105.486 44.472C107.406 41.912 109.241 39.7147 110.99 37.88C112.782 36.0453 114.339 34.744 115.662 33.976C116.729 33.3787 117.689 33.08 118.542 33.08C119.353 33.08 119.758 33.4213 119.758 34.104C119.758 34.7013 119.459 35.4693 118.862 36.408C118.563 36.8773 118.094 37.6667 117.454 38.776C116.857 39.8853 116.217 41.1013 115.534 42.424C114.894 43.704 114.339 44.8987 113.87 46.008C113.401 47.1173 113.166 47.928 113.166 48.44C113.166 49.1227 113.465 49.464 114.062 49.464C114.403 49.464 114.787 49.3573 115.214 49.144C115.683 48.9307 116.025 48.7387 116.238 48.568C117.39 47.7147 118.521 46.6693 119.63 45.432C120.739 44.1947 121.678 43.1067 122.446 42.168C122.489 42.1253 122.51 42.1893 122.51 42.36C122.51 42.5307 122.467 42.7867 122.382 43.128C122.339 43.4267 122.211 43.6827 121.998 43.896C121.529 44.536 121.038 45.1547 120.526 45.752C120.057 46.3067 119.587 46.8613 119.118 47.416C118.307 48.3547 117.326 49.2507 116.174 50.104C115.065 50.9573 113.806 51.384 112.398 51.384ZM130.443 51.192C130.016 51.192 129.653 51.1067 129.355 50.936C129.056 50.7653 128.907 50.4453 128.907 49.976C128.907 49.3787 129.056 48.696 129.355 47.928C129.653 47.16 129.995 46.4133 130.379 45.688C130.763 44.92 131.104 44.3013 131.403 43.832C129.909 45.4107 128.352 46.904 126.731 48.312C125.92 48.9947 125.024 49.6347 124.043 50.232C123.061 50.8293 122.016 51.128 120.907 51.128C120.48 51.128 120.181 51 120.011 50.744C119.84 50.4453 119.755 50.104 119.755 49.72C119.755 49.5067 119.776 49.3573 119.819 49.272C120.032 47.608 120.565 45.88 121.419 44.088C122.272 42.296 123.317 40.6107 124.555 39.032C125.792 37.4533 127.051 36.1733 128.331 35.192C129.781 34.0827 131.381 33.528 133.131 33.528H140.491C140.704 33.528 140.811 33.6133 140.811 33.784C140.811 34.1253 140.619 34.296 140.235 34.296C139.808 34.296 139.381 34.5733 138.955 35.128C138.528 35.64 138.208 36.0667 137.995 36.408C137.696 36.8773 137.227 37.6667 136.587 38.776C135.947 39.8853 135.285 41.1013 134.603 42.424C133.963 43.704 133.408 44.8987 132.939 46.008C132.469 47.1173 132.235 47.928 132.235 48.44C132.235 49.0373 132.533 49.336 133.131 49.336C133.771 49.336 134.496 49.0373 135.307 48.44C136.117 47.8427 136.928 47.1173 137.739 46.264C138.592 45.368 139.36 44.4933 140.043 43.64C140.768 42.744 141.344 42.04 141.771 41.528C142.027 41.784 142.005 42.1467 141.707 42.616C141.451 43.0427 141.216 43.384 141.003 43.64C140.149 44.7493 139.168 45.9013 138.059 47.096C136.949 48.248 135.733 49.2293 134.411 50.04C133.131 50.808 131.808 51.192 130.443 51.192ZM123.531 48.952C124.043 48.952 124.747 48.5893 125.643 47.864C126.581 47.096 127.584 46.1573 128.651 45.048C129.717 43.896 130.72 42.7013 131.659 41.464C132.597 40.184 133.365 39.032 133.963 38.008C134.603 36.9413 134.923 36.1307 134.923 35.576C134.923 35.1067 134.773 34.7867 134.475 34.616C134.219 34.4453 133.877 34.36 133.451 34.36C132.768 34.36 132.021 34.616 131.211 35.128C130.443 35.5973 129.824 36.0667 129.355 36.536C128.843 37.0053 128.224 37.752 127.499 38.776C126.816 39.7573 126.133 40.8453 125.451 42.04C124.768 43.2347 124.192 44.3867 123.723 45.496C123.253 46.6053 123.019 47.5013 123.019 48.184C123.019 48.696 123.189 48.952 123.531 48.952ZM145.799 51.384C145.202 51.384 144.69 51.1707 144.263 50.744C143.836 50.3173 143.623 49.5707 143.623 48.504C143.623 47.5653 143.687 46.456 143.815 45.176C143.986 43.896 144.22 42.5947 144.519 41.272C144.818 39.9067 145.159 38.712 145.543 37.688C144.818 38.7547 144.007 39.864 143.111 41.016C142.215 42.1253 141.468 43.064 140.871 43.832C140.743 44.0027 140.636 44.088 140.551 44.088C140.466 44.088 140.423 43.9813 140.423 43.768C140.423 43.4267 140.53 43.1067 140.743 42.808C141.639 41.5707 142.642 40.1627 143.751 38.584C144.903 37.0053 145.884 35.576 146.695 34.296C147.164 34.2107 147.719 34.0827 148.359 33.912C149.042 33.7413 149.532 33.5067 149.831 33.208C150.044 33.08 150.172 33.016 150.215 33.016C150.343 33.016 150.407 33.1013 150.407 33.272C150.407 33.4 150.343 33.5493 150.215 33.72C149.831 34.2747 149.404 35.128 148.935 36.28C148.508 37.432 148.06 38.712 147.591 40.12C147.164 41.528 146.802 42.9147 146.503 44.28C146.247 45.6027 146.119 46.7333 146.119 47.672C146.119 48.3547 146.226 48.8453 146.439 49.144C146.652 49.4 146.93 49.528 147.271 49.528C147.74 49.528 148.295 49.2933 148.935 48.824C149.618 48.3547 150.194 47.864 150.663 47.352C151.26 46.712 151.922 45.8587 152.647 44.792C153.415 43.7253 154.119 42.5947 154.759 41.4C155.442 40.2053 155.954 39.1173 156.295 38.136C156.551 37.4533 156.722 36.8773 156.807 36.408C156.892 35.896 156.935 35.4907 156.935 35.192C156.935 34.68 156.871 34.3173 156.743 34.104C156.615 33.8907 156.508 33.7627 156.423 33.72C156.167 33.6347 156.039 33.528 156.039 33.4C156.039 33.3147 156.124 33.2507 156.295 33.208C156.466 33.1227 156.636 33.1227 156.807 33.208C157.362 33.3787 157.916 33.6347 158.471 33.976C159.026 34.2747 159.303 34.872 159.303 35.768C159.303 35.9813 159.282 36.2373 159.239 36.536C159.196 36.792 159.111 37.0907 158.983 37.432C158.727 38.1147 158.194 39.0747 157.383 40.312C156.615 41.5493 155.719 42.8507 154.695 44.216C153.671 45.5813 152.647 46.8187 151.623 47.928C150.599 49.0373 149.703 49.8267 148.935 50.296C148.423 50.5947 147.89 50.8507 147.335 51.064C146.78 51.2773 146.268 51.384 145.799 51.384ZM163.012 51.512C161.262 51.512 160.046 51.1707 159.364 50.488C158.681 49.8053 158.34 48.9733 158.34 47.992C158.34 46.7547 158.66 45.432 159.299 44.024C159.982 42.616 160.622 41.4213 161.22 40.44C161.902 39.416 162.82 38.3493 163.972 37.24C165.124 36.1307 166.382 35.192 167.748 34.424C169.113 33.656 170.436 33.272 171.716 33.272C172.825 33.272 173.593 33.5493 174.02 34.104C174.446 34.616 174.66 35.2347 174.66 35.96C174.66 37.2827 174.254 38.3707 173.444 39.224C172.676 40.0773 171.716 40.7813 170.564 41.336C169.412 41.848 168.302 42.2747 167.236 42.616C166.596 42.7867 165.849 42.9573 164.996 43.128C164.142 43.2987 163.332 43.384 162.564 43.384C162.265 44.152 162.03 44.8987 161.86 45.624C161.689 46.3493 161.604 47.0107 161.604 47.608C161.604 48.3333 161.774 48.9307 162.116 49.4C162.5 49.8693 163.118 50.104 163.972 50.104C164.313 50.104 164.718 50.0613 165.188 49.976C165.657 49.8907 166.169 49.7627 166.724 49.592C168.004 49.1653 169.262 48.4827 170.5 47.544C171.737 46.6053 172.868 45.6027 173.892 44.536C174.958 43.4267 175.769 42.5093 176.324 41.784C176.452 41.912 176.516 42.0613 176.516 42.232C176.516 42.4453 176.366 42.7867 176.068 43.256C175.214 44.4507 174.105 45.688 172.74 46.968C171.374 48.248 169.86 49.336 168.196 50.232C166.532 51.0853 164.804 51.512 163.012 51.512ZM163.076 42.104C163.63 42.1467 164.249 42.1467 164.932 42.104C165.657 42.0187 166.361 41.8693 167.044 41.656C168.793 41.144 170.052 40.3333 170.82 39.224C171.63 38.072 172.036 37.048 172.036 36.152C172.036 35.64 171.929 35.2133 171.716 34.872C171.502 34.5307 171.161 34.36 170.692 34.36C169.454 34.36 168.345 34.8293 167.364 35.768C166.382 36.664 165.529 37.7093 164.804 38.904C164.078 40.0987 163.502 41.1653 163.076 42.104ZM175.685 51.96C175.514 51.96 175.514 51.768 175.685 51.384C175.898 51 176.09 50.5733 176.261 50.104C176.474 49.6347 176.688 49.1227 176.901 48.568C177.328 47.544 177.797 46.392 178.309 45.112C178.821 43.832 179.312 42.5947 179.781 41.4C180.25 40.1627 180.656 39.1173 180.997 38.264C181.381 37.368 181.637 36.792 181.765 36.536C181.168 37.176 180.442 37.9867 179.589 38.968C178.778 39.9067 178.01 40.824 177.285 41.72C176.56 42.616 176.005 43.32 175.621 43.832C175.493 44.0027 175.386 44.088 175.301 44.088C175.216 44.088 175.173 43.9813 175.173 43.768C175.173 43.4267 175.28 43.1067 175.493 42.808C176.304 41.784 177.2 40.632 178.181 39.352C179.205 38.072 180.122 36.8987 180.933 35.832C181.744 34.7227 182.256 33.9973 182.469 33.656C182.938 33.5707 183.621 33.4427 184.517 33.272C185.456 33.1013 186.096 32.8667 186.437 32.568C186.565 32.44 186.693 32.376 186.821 32.376C186.906 32.376 186.949 32.4613 186.949 32.632C186.992 32.76 186.949 32.9093 186.821 33.08C186.565 33.3787 186.117 34.0827 185.477 35.192C184.88 36.2587 184.218 37.4533 183.493 38.776C182.81 40.0987 182.17 41.2933 181.573 42.36C182.085 41.6773 182.64 41.016 183.237 40.376C183.834 39.736 184.41 39.1173 184.965 38.52C185.477 38.008 186.181 37.368 187.077 36.6C187.973 35.832 188.912 35.128 189.893 34.488C190.874 33.848 191.728 33.4853 192.453 33.4C192.624 33.3573 192.773 33.336 192.901 33.336C193.072 33.336 193.2 33.336 193.285 33.336C194.224 33.336 194.693 33.6773 194.693 34.36C194.693 34.872 194.416 35.5547 193.861 36.408C193.562 36.8773 193.093 37.6667 192.453 38.776C191.856 39.8427 191.237 41.016 190.597 42.296C190 43.5333 189.466 44.7067 188.997 45.816C188.57 46.8827 188.357 47.672 188.357 48.184C188.357 48.7813 188.656 49.08 189.253 49.08C189.978 49.08 190.768 48.7173 191.621 47.992C192.517 47.2667 193.477 46.3493 194.501 45.24C195.525 44.088 196.549 42.872 197.573 41.592C197.658 41.6773 197.701 41.8267 197.701 42.04C197.701 42.3387 197.594 42.6373 197.381 42.936C197.21 43.192 197.04 43.4267 196.869 43.64C196.442 44.1947 195.866 44.8987 195.141 45.752C194.458 46.5627 193.754 47.3733 193.029 48.184C192.304 48.952 191.642 49.5707 191.045 50.04C190.618 50.3387 190.064 50.6587 189.381 51C188.698 51.3413 188.016 51.512 187.333 51.512C186.565 51.512 186.032 51.32 185.733 50.936C185.434 50.5093 185.285 49.9973 185.285 49.4C185.285 48.7173 185.413 47.992 185.669 47.224C185.925 46.456 186.202 45.7307 186.501 45.048C186.842 44.3227 187.098 43.7893 187.269 43.448C188.037 41.9547 188.741 40.5467 189.381 39.224C190.021 37.9013 190.469 36.9627 190.725 36.408C190.853 36.152 190.917 35.9387 190.917 35.768C190.917 35.4693 190.682 35.448 190.213 35.704C189.744 35.96 189.168 36.344 188.485 36.856C187.845 37.368 187.248 37.88 186.693 38.392C186.138 38.8613 185.776 39.1813 185.605 39.352C184.026 41.016 182.64 42.872 181.445 44.92C180.293 46.9253 179.312 48.9947 178.501 51.128C177.946 51.1707 177.392 51.32 176.837 51.576C176.282 51.832 175.898 51.96 175.685 51.96Z" fill="white"/>
<path d="M1.392 74V62.72H5.856C7.06133 62.72 7.98933 63.0027 8.64 63.568C9.29067 64.1333 9.616 64.9387 9.616 65.984C9.616 66.6453 9.46667 67.2213 9.168 67.712C8.88 68.192 8.45333 68.56 7.888 68.816C7.32267 69.0613 6.64533 69.184 5.856 69.184L6.016 68.976H6.336C6.752 68.976 7.11467 69.0827 7.424 69.296C7.73333 69.5093 8.016 69.8507 8.272 70.32L10.256 74H8.816L6.864 70.384C6.704 70.0853 6.52267 69.8507 6.32 69.68C6.128 69.5093 5.904 69.392 5.648 69.328C5.40267 69.264 5.104 69.232 4.752 69.232H2.704V74H1.392ZM2.704 68.192H5.664C6.53867 68.192 7.2 68.0107 7.648 67.648C8.096 67.2747 8.32 66.72 8.32 65.984C8.32 65.2693 8.096 64.7307 7.648 64.368C7.2 63.9947 6.53867 63.808 5.664 63.808H2.704V68.192ZM22.4951 74V62.72H29.6151V63.824H23.7751V67.728H29.2791V68.832H23.7751V72.896H29.6151V74H22.4951ZM45.715 74.144C45.1283 74.144 44.5737 74.0907 44.051 73.984C43.539 73.8773 43.0643 73.728 42.627 73.536C42.2003 73.3333 41.811 73.088 41.459 72.8L41.923 71.744C42.2857 72.0107 42.6537 72.24 43.027 72.432C43.411 72.6133 43.8217 72.752 44.259 72.848C44.707 72.9333 45.1923 72.976 45.715 72.976C46.675 72.976 47.3843 72.8 47.843 72.448C48.3123 72.0853 48.547 71.6107 48.547 71.024C48.547 70.7147 48.4723 70.448 48.323 70.224C48.1843 70 47.9497 69.808 47.619 69.648C47.299 69.488 46.8777 69.3547 46.355 69.248L44.691 68.912C43.6883 68.6987 42.9363 68.352 42.435 67.872C41.9443 67.3813 41.699 66.7307 41.699 65.92C41.699 65.248 41.8697 64.6613 42.211 64.16C42.563 63.6587 43.0483 63.2693 43.667 62.992C44.2963 62.7147 45.011 62.576 45.811 62.576C46.323 62.576 46.8083 62.6293 47.267 62.736C47.7257 62.8427 48.147 63.0027 48.531 63.216C48.9257 63.4187 49.2723 63.6693 49.571 63.968L49.107 64.992C48.627 64.5547 48.1203 64.24 47.587 64.048C47.0537 63.8453 46.4563 63.744 45.795 63.744C45.2297 63.744 44.739 63.8293 44.323 64C43.9177 64.1707 43.5977 64.4213 43.363 64.752C43.139 65.072 43.027 65.4453 43.027 65.872C43.027 66.384 43.1817 66.7893 43.491 67.088C43.811 67.3867 44.3283 67.6053 45.043 67.744L46.707 68.096C47.7843 68.32 48.579 68.6613 49.091 69.12C49.6137 69.568 49.875 70.1813 49.875 70.96C49.875 71.5787 49.7043 72.1333 49.363 72.624C49.0323 73.104 48.5523 73.4773 47.923 73.744C47.3043 74.0107 46.5683 74.144 45.715 74.144ZM64.8444 74V63.856H60.7484V62.72H70.2684V63.856H66.1724V74H64.8444ZM79.7946 74L84.7706 62.72H85.8906L90.8666 74H89.5066L88.1146 70.784L88.7546 71.12H81.8746L82.5306 70.784L81.1546 74H79.7946ZM85.3146 64.256L82.7386 70.32L82.3546 70.016H88.2746L87.9226 70.32L85.3466 64.256H85.3146ZM107.309 74.144C105.837 74.144 104.711 73.7547 103.933 72.976C103.165 72.1867 102.781 71.04 102.781 69.536V62.72H104.093V69.472C104.093 70.6453 104.365 71.5253 104.909 72.112C105.453 72.688 106.253 72.976 107.309 72.976C108.365 72.976 109.159 72.688 109.693 72.112C110.226 71.5253 110.493 70.6453 110.493 69.472V62.72H111.805V69.536C111.805 71.04 111.421 72.1867 110.653 72.976C109.895 73.7547 108.781 74.144 107.309 74.144ZM124.901 74V62.72H129.365C130.571 62.72 131.499 63.0027 132.149 63.568C132.8 64.1333 133.125 64.9387 133.125 65.984C133.125 66.6453 132.976 67.2213 132.677 67.712C132.389 68.192 131.963 68.56 131.397 68.816C130.832 69.0613 130.155 69.184 129.365 69.184L129.525 68.976H129.845C130.261 68.976 130.624 69.0827 130.933 69.296C131.243 69.5093 131.525 69.8507 131.781 70.32L133.765 74H132.325L130.373 70.384C130.213 70.0853 130.032 69.8507 129.829 69.68C129.637 69.5093 129.413 69.392 129.157 69.328C128.912 69.264 128.613 69.232 128.261 69.232H126.213V74H124.901ZM126.213 68.192H129.173C130.048 68.192 130.709 68.0107 131.157 67.648C131.605 67.2747 131.829 66.72 131.829 65.984C131.829 65.2693 131.605 64.7307 131.157 64.368C130.709 63.9947 130.048 63.808 129.173 63.808H126.213V68.192ZM144.745 74L149.721 62.72H150.841L155.817 74H154.457L153.065 70.784L153.705 71.12H146.825L147.481 70.784L146.105 74H144.745ZM150.265 64.256L147.689 70.32L147.305 70.016H153.225L152.873 70.32L150.297 64.256H150.265ZM167.889 74V62.72H168.913L176.097 72.304H175.713V62.72H176.929V74H175.937L168.753 64.416H169.121V74H167.889ZM192.901 74V63.856H188.805V62.72H198.325V63.856H194.229V74H192.901Z" fill="white"/>
</svg>
